<mxfile host="Electron" modified="2024-05-08T11:59:25.635Z" agent="Mozilla/5.0 (Windows NT 10.0; Win64; x64) AppleWebKit/537.36 (KHTML, like Gecko) draw.io/24.2.5 Chrome/120.0.6099.109 Electron/28.1.0 Safari/537.36" etag="1fIAhas9VsnwcJkzdKO9" version="24.2.5" type="device">
  <diagram name="Page-1" id="lOK7_bSmvfNUArvgLiD3">
    <mxGraphModel dx="698" dy="1575" grid="1" gridSize="10" guides="1" tooltips="1" connect="1" arrows="1" fold="1" page="1" pageScale="1" pageWidth="850" pageHeight="1100" math="0" shadow="0">
      <root>
        <mxCell id="0" />
        <mxCell id="1" parent="0" />
        <mxCell id="gbIlrfRVLxVOCRnDxzNv-7" style="edgeStyle=orthogonalEdgeStyle;rounded=0;orthogonalLoop=1;jettySize=auto;html=1;entryX=0;entryY=0.5;entryDx=0;entryDy=0;" parent="1" source="gbIlrfRVLxVOCRnDxzNv-1" target="gbIlrfRVLxVOCRnDxzNv-4" edge="1">
          <mxGeometry relative="1" as="geometry" />
        </mxCell>
        <mxCell id="gbIlrfRVLxVOCRnDxzNv-8" style="edgeStyle=orthogonalEdgeStyle;rounded=0;orthogonalLoop=1;jettySize=auto;html=1;entryX=0;entryY=0.5;entryDx=0;entryDy=0;" parent="1" source="gbIlrfRVLxVOCRnDxzNv-1" target="gbIlrfRVLxVOCRnDxzNv-3" edge="1">
          <mxGeometry relative="1" as="geometry" />
        </mxCell>
        <mxCell id="gbIlrfRVLxVOCRnDxzNv-9" style="edgeStyle=orthogonalEdgeStyle;rounded=0;orthogonalLoop=1;jettySize=auto;html=1;entryX=0;entryY=0.5;entryDx=0;entryDy=0;" parent="1" source="gbIlrfRVLxVOCRnDxzNv-1" target="gbIlrfRVLxVOCRnDxzNv-5" edge="1">
          <mxGeometry relative="1" as="geometry" />
        </mxCell>
        <mxCell id="gbIlrfRVLxVOCRnDxzNv-10" style="edgeStyle=orthogonalEdgeStyle;rounded=0;orthogonalLoop=1;jettySize=auto;html=1;entryX=0;entryY=0.5;entryDx=0;entryDy=0;" parent="1" source="gbIlrfRVLxVOCRnDxzNv-1" target="gbIlrfRVLxVOCRnDxzNv-6" edge="1">
          <mxGeometry relative="1" as="geometry" />
        </mxCell>
        <mxCell id="gbIlrfRVLxVOCRnDxzNv-1" value="Адміністратор" style="shape=umlActor;verticalLabelPosition=bottom;verticalAlign=top;html=1;outlineConnect=0;" parent="1" vertex="1">
          <mxGeometry x="150" y="220" width="30" height="60" as="geometry" />
        </mxCell>
        <mxCell id="G4rNa1rVVNwuKCK4cokq-21" style="edgeStyle=orthogonalEdgeStyle;rounded=0;orthogonalLoop=1;jettySize=auto;html=1;entryX=0;entryY=0.5;entryDx=0;entryDy=0;" edge="1" parent="1" source="gbIlrfRVLxVOCRnDxzNv-3" target="G4rNa1rVVNwuKCK4cokq-17">
          <mxGeometry relative="1" as="geometry" />
        </mxCell>
        <mxCell id="G4rNa1rVVNwuKCK4cokq-22" style="edgeStyle=orthogonalEdgeStyle;rounded=0;orthogonalLoop=1;jettySize=auto;html=1;" edge="1" parent="1" source="gbIlrfRVLxVOCRnDxzNv-3" target="G4rNa1rVVNwuKCK4cokq-19">
          <mxGeometry relative="1" as="geometry" />
        </mxCell>
        <mxCell id="G4rNa1rVVNwuKCK4cokq-23" style="edgeStyle=orthogonalEdgeStyle;rounded=0;orthogonalLoop=1;jettySize=auto;html=1;entryX=0;entryY=0.5;entryDx=0;entryDy=0;" edge="1" parent="1" source="gbIlrfRVLxVOCRnDxzNv-3" target="G4rNa1rVVNwuKCK4cokq-20">
          <mxGeometry relative="1" as="geometry" />
        </mxCell>
        <mxCell id="gbIlrfRVLxVOCRnDxzNv-3" value="Управління будинками" style="rounded=1;whiteSpace=wrap;html=1;" parent="1" vertex="1">
          <mxGeometry x="290" y="165" width="90" height="40" as="geometry" />
        </mxCell>
        <mxCell id="G4rNa1rVVNwuKCK4cokq-3" style="edgeStyle=orthogonalEdgeStyle;rounded=0;orthogonalLoop=1;jettySize=auto;html=1;entryX=0;entryY=0.5;entryDx=0;entryDy=0;" edge="1" parent="1" source="gbIlrfRVLxVOCRnDxzNv-4" target="G4rNa1rVVNwuKCK4cokq-2">
          <mxGeometry relative="1" as="geometry">
            <Array as="points">
              <mxPoint x="335" />
            </Array>
          </mxGeometry>
        </mxCell>
        <mxCell id="G4rNa1rVVNwuKCK4cokq-5" style="edgeStyle=orthogonalEdgeStyle;rounded=0;orthogonalLoop=1;jettySize=auto;html=1;entryX=0;entryY=0.5;entryDx=0;entryDy=0;" edge="1" parent="1" source="gbIlrfRVLxVOCRnDxzNv-4" target="G4rNa1rVVNwuKCK4cokq-4">
          <mxGeometry relative="1" as="geometry" />
        </mxCell>
        <mxCell id="G4rNa1rVVNwuKCK4cokq-7" style="edgeStyle=orthogonalEdgeStyle;rounded=0;orthogonalLoop=1;jettySize=auto;html=1;entryX=0;entryY=0.5;entryDx=0;entryDy=0;" edge="1" parent="1" source="gbIlrfRVLxVOCRnDxzNv-4" target="G4rNa1rVVNwuKCK4cokq-6">
          <mxGeometry relative="1" as="geometry">
            <Array as="points">
              <mxPoint x="335" y="-60" />
            </Array>
          </mxGeometry>
        </mxCell>
        <mxCell id="gbIlrfRVLxVOCRnDxzNv-4" value="Управління квартирами" style="rounded=1;whiteSpace=wrap;html=1;" parent="1" vertex="1">
          <mxGeometry x="290" y="50" width="90" height="40" as="geometry" />
        </mxCell>
        <mxCell id="gbIlrfRVLxVOCRnDxzNv-5" value="Управління власниками" style="rounded=1;whiteSpace=wrap;html=1;" parent="1" vertex="1">
          <mxGeometry x="290" y="290" width="90" height="40" as="geometry" />
        </mxCell>
        <mxCell id="gbIlrfRVLxVOCRnDxzNv-6" value="Управління орендарями" style="rounded=1;whiteSpace=wrap;html=1;" parent="1" vertex="1">
          <mxGeometry x="290" y="440" width="90" height="40" as="geometry" />
        </mxCell>
        <mxCell id="gbIlrfRVLxVOCRnDxzNv-15" style="edgeStyle=orthogonalEdgeStyle;rounded=0;orthogonalLoop=1;jettySize=auto;html=1;entryX=0;entryY=0.5;entryDx=0;entryDy=0;" parent="1" source="gbIlrfRVLxVOCRnDxzNv-11" target="gbIlrfRVLxVOCRnDxzNv-12" edge="1">
          <mxGeometry relative="1" as="geometry" />
        </mxCell>
        <mxCell id="gbIlrfRVLxVOCRnDxzNv-16" style="edgeStyle=orthogonalEdgeStyle;rounded=0;orthogonalLoop=1;jettySize=auto;html=1;" parent="1" source="gbIlrfRVLxVOCRnDxzNv-11" target="gbIlrfRVLxVOCRnDxzNv-13" edge="1">
          <mxGeometry relative="1" as="geometry" />
        </mxCell>
        <mxCell id="gbIlrfRVLxVOCRnDxzNv-17" style="edgeStyle=orthogonalEdgeStyle;rounded=0;orthogonalLoop=1;jettySize=auto;html=1;entryX=0;entryY=0.5;entryDx=0;entryDy=0;" parent="1" source="gbIlrfRVLxVOCRnDxzNv-11" target="gbIlrfRVLxVOCRnDxzNv-14" edge="1">
          <mxGeometry relative="1" as="geometry" />
        </mxCell>
        <mxCell id="gbIlrfRVLxVOCRnDxzNv-11" value="Actor" style="shape=umlActor;verticalLabelPosition=bottom;verticalAlign=top;html=1;outlineConnect=0;" parent="1" vertex="1">
          <mxGeometry x="720" y="210" width="30" height="60" as="geometry" />
        </mxCell>
        <mxCell id="gbIlrfRVLxVOCRnDxzNv-12" value="Управління Орендою" style="rounded=1;whiteSpace=wrap;html=1;" parent="1" vertex="1">
          <mxGeometry x="830" y="155" width="90" height="40" as="geometry" />
        </mxCell>
        <mxCell id="gbIlrfRVLxVOCRnDxzNv-13" value="Управління комун. витратами" style="rounded=1;whiteSpace=wrap;html=1;" parent="1" vertex="1">
          <mxGeometry x="830" y="215" width="100" height="50" as="geometry" />
        </mxCell>
        <mxCell id="gbIlrfRVLxVOCRnDxzNv-14" value="Управління ремонтами" style="rounded=1;whiteSpace=wrap;html=1;" parent="1" vertex="1">
          <mxGeometry x="830" y="285" width="90" height="40" as="geometry" />
        </mxCell>
        <mxCell id="G4rNa1rVVNwuKCK4cokq-2" value="Оновити ціну за 1м^2" style="rounded=1;whiteSpace=wrap;html=1;" vertex="1" parent="1">
          <mxGeometry x="440" y="-20" width="110" height="40" as="geometry" />
        </mxCell>
        <mxCell id="G4rNa1rVVNwuKCK4cokq-4" value="Додати інформацію про кімнату в квартирі" style="rounded=1;whiteSpace=wrap;html=1;" vertex="1" parent="1">
          <mxGeometry x="440" y="45" width="110" height="50" as="geometry" />
        </mxCell>
        <mxCell id="G4rNa1rVVNwuKCK4cokq-6" value="Подивитися інформацію про квартиру" style="rounded=1;whiteSpace=wrap;html=1;" vertex="1" parent="1">
          <mxGeometry x="440" y="-80" width="110" height="40" as="geometry" />
        </mxCell>
        <mxCell id="G4rNa1rVVNwuKCK4cokq-10" value="Додати власника до квартири" style="rounded=1;whiteSpace=wrap;html=1;" vertex="1" parent="1">
          <mxGeometry x="425" y="270" width="105" height="40" as="geometry" />
        </mxCell>
        <mxCell id="G4rNa1rVVNwuKCK4cokq-17" value="Створити будинок" style="rounded=1;whiteSpace=wrap;html=1;" vertex="1" parent="1">
          <mxGeometry x="450" y="125" width="100" height="35" as="geometry" />
        </mxCell>
        <mxCell id="G4rNa1rVVNwuKCK4cokq-19" value="Подивитися усі будинки" style="rounded=1;whiteSpace=wrap;html=1;" vertex="1" parent="1">
          <mxGeometry x="450" y="167.5" width="100" height="35" as="geometry" />
        </mxCell>
        <mxCell id="G4rNa1rVVNwuKCK4cokq-20" value="Вибрати будинок" style="rounded=1;whiteSpace=wrap;html=1;" vertex="1" parent="1">
          <mxGeometry x="450" y="210" width="100" height="35" as="geometry" />
        </mxCell>
        <mxCell id="G4rNa1rVVNwuKCK4cokq-24" value="Видалити власнкиа" style="rounded=1;whiteSpace=wrap;html=1;" vertex="1" parent="1">
          <mxGeometry x="425" y="350" width="105" height="40" as="geometry" />
        </mxCell>
        <mxCell id="G4rNa1rVVNwuKCK4cokq-25" value="Порахувати загальний дохід зі всіх квартир&amp;nbsp;" style="rounded=1;whiteSpace=wrap;html=1;" vertex="1" parent="1">
          <mxGeometry x="425" y="400" width="105" height="50" as="geometry" />
        </mxCell>
      </root>
    </mxGraphModel>
  </diagram>
</mxfile>
